<?xml version="1.0" encoding="utf-8"?>
<!-- Generator: Adobe Illustrator 19.1.0, SVG Export Plug-In . SVG Version: 6.00 Build 0)  -->
<svg version="1.1" id="Layer_1" xmlns="http://www.w3.org/2000/svg" xmlns:xlink="http://www.w3.org/1999/xlink" x="0px" y="0px"
	 viewBox="-221.2 223 42.3 57" style="enable-background:new -221.2 223 42.3 57;" xml:space="preserve">
<style type="text/css">
	.st0{fill:#EA8928;stroke:#FFFFFF;stroke-width:4;stroke-miterlimit:10;}
	.st1{fill:#FFFFFF;}
</style>
<g id="body">
	<g>
		<polygon class="st0" points="-200,276 -212.1,257.2 -200,245.1 -187.9,257.2 		"/>
		<circle class="st0" cx="-200" cy="245.1" r="19.1"/>
	</g>
</g>
<path id="icon" class="st1" d="M-190.7,245.4l-1.6-1.6v-4.4h-2.9v1.5l-4.1-4.1c-0.4-0.4-1-0.4-1.4,0l-8.6,8.6
	c-0.3,0.3-0.4,0.7-0.2,1c0.1,0.4,0.5,0.6,0.9,0.6h1v6.7h2.9v-4.8h2.9v4.8h9.6V247h1c0.4,0,0.7-0.2,0.9-0.6
	C-190.3,246.1-190.4,245.6-190.7,245.4z M-194.2,249.9h-4.8V247h4.8V249.9z"/>
</svg>
