<?xml version="1.0" encoding="utf-8"?>
<!-- Generator: Adobe Illustrator 19.1.0, SVG Export Plug-In . SVG Version: 6.00 Build 0)  -->
<svg version="1.1" id="Layer_1" xmlns="http://www.w3.org/2000/svg" xmlns:xlink="http://www.w3.org/1999/xlink" x="0px" y="0px"
	 viewBox="0 0 1000 1000" style="enable-background:new 0 0 1000 1000;" xml:space="preserve">
<style type="text/css">
	.st0{opacity:0.3;}
	.st1{fill:none;stroke:#CFD1CF;stroke-width:3;stroke-miterlimit:10;}
	.st2{fill:none;stroke:#000000;stroke-width:7;stroke-miterlimit:10;}
</style>
<g id="region">
	<g id="internal_lines" class="st0">
		<polyline class="st1" points="410.2,700.7 389.7,693.9 369.7,700.7 355.7,728.5 343.7,719.4 322.7,750.9 328.7,779.9 343.7,809.8 
			343.7,841.9 338.7,886.9 379.7,900.9 400.3,900.9 420.3,902.9 		"/>
		<polyline class="st1" points="337.6,728.5 310.7,733.5 294.7,723.9 303.7,684.9 316.1,677.9 316.1,661.9 322.7,645.9 322.1,608.5 
					"/>
		<polyline class="st1" points="294.7,723.9 267.7,730.5 248.7,723.9 235.7,730.5 210.7,718.4 146,725 		"/>
		<polyline class="st1" points="267.7,730.5 282.7,748.5 275.2,760.2 282.7,771.9 250.7,813.9 244.7,847.8 252.7,877.9 244.7,902.9 
			257.7,926.9 263.7,935.9 252.7,977.7 		"/>
		<polyline class="st1" points="484,599 500.5,608.5 498,632.9 517,684.9 505,722.5 497,748.5 509.7,787.6 503,806.7 527,813.9 
			537,830.1 510.5,867.9 506.9,888.9 488.7,896.9 500,917.9 498,940.9 509.7,956.8 		"/>
		<polyline class="st1" points="499.5,740.2 484,744.4 481.7,758.4 487.7,771.4 481.7,791.4 494.2,809.4 484,820.9 490.6,827.9 
			499.5,831.4 510.5,833.4 524.8,847.5 		"/>
		<polyline class="st1" points="514.1,693.9 527.2,718.4 544.2,724.4 562.1,727.4 568.7,736.9 562.1,750.9 594.2,759.9 605.2,777.9 
			622.2,816.9 618.2,834.4 613.2,854.1 598.7,876.9 605.7,880.9 606,900.3 		"/>
		<polyline class="st1" points="663.8,800.1 642.7,793.8 645.2,771.4 650.7,765.4 653.2,746.9 669.2,724.4 675.2,705.4 671.2,680.9 
			650.2,657.9 631.2,645.9 599.7,640.9 576.7,638.4 562.1,643.4 547.2,635.9 528.2,635.9 512.7,614.9 500.5,608.5 		"/>
		<polyline class="st1" points="478.7,441.9 489.2,448.4 503.2,445.1 520.5,455.9 537,453.4 558.2,467.9 578.2,474.9 594.7,471.4 
			613.3,479.7 		"/>
		<polyline class="st1" points="523,243.9 533.7,258.9 531.2,269.9 540.7,279.9 546,263.9 555.7,256.4 567.7,266.4 565.2,243.9 
			570.7,231.9 570.7,212.4 560.2,204.3 		"/>
		<polyline class="st1" points="566.1,252.4 588.7,252.4 597.2,258.9 606.7,264.4 613.3,268.9 619.2,264.9 629.2,268.9 654.2,271.9 
			668.2,276.4 663.2,296.9 676.5,315.9 		"/>
		<polyline class="st1" points="574.7,176.3 596.7,171.4 627.2,173.9 650.2,171.4 668.7,184.4 673.2,195.9 684.7,198.9 691.7,212.4 
			707.2,223.9 720.2,233.9 729.2,252.4 743.7,265.9 758,287.7 		"/>
		<polyline class="st1" points="684.7,198.9 688.7,171.4 695.2,157.9 702.7,157.9 702.7,145.4 729.2,147.9 741.2,156.4 735.2,163.9 
			729.2,171.4 715.2,180.9 712.9,193.9 712.9,207.4 701.7,214.4 701,219.3 		"/>
		<polyline class="st1" points="718.4,178.7 731.2,186.4 738.2,197.9 758,197.9 777.4,204.3 		"/>
		<polyline class="st1" points="738.9,154.8 747.9,150.4 735.2,126.9 761.7,111.4 777.4,123.9 799.7,120.4 814.2,124.9 811.7,130.4 
			798.7,129.9 787.2,137.9 831,160.4 		"/>
		<polyline class="st1" points="416,587 423.8,655.9 410.2,677.9 410.2,700.7 410.2,801.2 407.6,853.9 420.3,902.9 433,935.9 
			448.7,972.9 448.7,977.7 		"/>
		<polyline class="st1" points="582,174.7 582,189.9 592.7,198.4 592.7,210.9 607.2,223.4 601.2,236.9 613.3,252.4 613.3,268.9 		
			"/>
	</g>
	<polygon id="outline" class="st2" points="166.7,977.7 171.3,957 169,939.7 166.7,917.7 163.3,899 157.3,877 152,864.3 152,852.3 
		154.7,838.3 155.3,825.7 147.3,805.7 150,791.7 142,767.7 142,749 146,725 142,698.3 156.7,689 168,666.3 178.7,658.3 172,647 
		186.7,622.3 186.7,603 217.3,606.3 247.3,600.3 266.7,605 290,610.3 315.3,617 331.3,597 369.3,610.3 393.3,597 416,587 450,596.3 
		458.7,600.3 474.7,596.3 484,599 488,584.3 483.3,565.7 474,533.7 479.3,509.7 470.7,475.7 478.7,458.3 478.7,421.7 480.7,394.3 
		476,360.3 470.7,343 483.3,323 488,300.3 496.7,289.7 502,267.7 512.7,258.3 535.3,217.7 544,221.7 562.1,202.3 574.7,176.3 
		580,153 567.3,147 572,127 558.7,107 551.3,107 542.7,91 553.3,83.7 556,47 554.7,22.3 791.3,22.3 791.3,37.7 791.3,47 791.3,54.3 
		800,56.3 800,68.3 818.7,70.3 837.3,65 858,82.3 854.7,101 845.3,119.7 845.3,132.3 835.3,143 836,153.7 818.7,177 798.7,171 
		776,182.3 778,213 772,235 776.7,243 769.3,266.3 768.7,276.3 758,287.7 742.7,300.3 714,293 688.7,311.7 658,322.3 648.7,322.3 
		644.7,347 626.7,359.7 624,387.7 612,397.7 612,448.3 613.3,479.7 604.7,500 612.7,509 604,529.7 604,562.3 612.7,575 606,606.3 
		622,607 648,637 672,636.3 677.3,647 676,663 694,680.3 691.3,708.3 676,733.7 680,743.7 675.3,767 680.7,777.7 650,818.3 
		649.3,837 637.3,872.3 619.3,875 620,891 606,900.3 612,913.7 594.7,927.7 566.7,947 545.3,951.7 528,949.7 485.3,966.3 480,977.7 
			"/>
</g>
</svg>
