<?xml version="1.0" encoding="utf-8"?>
<!-- Generator: Adobe Illustrator 19.1.0, SVG Export Plug-In . SVG Version: 6.00 Build 0)  -->
<svg version="1.1" id="audio_x5F_icon" xmlns="http://www.w3.org/2000/svg" xmlns:xlink="http://www.w3.org/1999/xlink" x="0px"
	 y="0px" viewBox="-340.1 221 74 74" style="enable-background:new -340.1 221 74 74;" xml:space="preserve">
<style type="text/css">
	.st0{fill:#EA8928;stroke:#FFFFFF;stroke-width:4;stroke-miterlimit:10;}
	.st1{fill:#FFFFFF;}
</style>
<circle id="bg_x5F_circle" class="st0" cx="-303.1" cy="258" r="34.6"/>
<g id="center_x5F_icon">
	<path class="st1" d="M-303.4,240.6c-0.7-0.3-1.6-0.1-2.1,0.4l-8.4,9.2h-5.8c-1.1,0-1.9,0.9-1.9,1.9v11.7c0,1.1,0.9,1.9,1.9,1.9h5.8
		l8.4,9.2c0.6,0.6,1.4,0.7,2.1,0.4c0.7-0.3,1.2-1,1.2-1.8v-31.1C-302.2,241.7-302.6,240.9-303.4,240.6z"/>
	<path class="st1" d="M-298.3,244.4v3.9c5.4,0,9.7,4.4,9.7,9.7c0,5.4-4.4,9.7-9.7,9.7v3.9c7.5,0,13.6-6.1,13.6-13.6
		C-284.7,250.5-290.8,244.4-298.3,244.4z"/>
	<path class="st1" d="M-292.4,258c0-3.2-2.6-5.8-5.8-5.8v3.9c1.1,0,1.9,0.9,1.9,1.9c0,1.1-0.9,1.9-1.9,1.9v3.9
		C-295.1,263.8-292.4,261.2-292.4,258z"/>
</g>
</svg>
