<?xml version="1.0" encoding="utf-8"?>
<!-- Generator: Adobe Illustrator 19.1.0, SVG Export Plug-In . SVG Version: 6.00 Build 0)  -->
<svg version="1.1" id="photo_x5F_icon" xmlns="http://www.w3.org/2000/svg" xmlns:xlink="http://www.w3.org/1999/xlink" x="0px"
	 y="0px" viewBox="-340.1 221 74 74" style="enable-background:new -340.1 221 74 74;" xml:space="preserve">
<style type="text/css">
	.st0{fill:#EA8928;stroke:#FFFFFF;stroke-width:4;stroke-miterlimit:10;}
	.st1{fill:#FFFFFF;}
</style>
<circle id="bg_x5F_circle" class="st0" cx="-303.1" cy="258" r="34.6"/>
<g id="center_x5F_icon">
	<path class="st1" d="M-303.1,253.1c-3.6,0-6.5,2.9-6.5,6.5c0,3.6,2.9,6.5,6.5,6.5s6.5-2.9,6.5-6.5
		C-296.6,256-299.5,253.1-303.1,253.1z"/>
	<path class="st1" d="M-290.1,248.2h-3.2c-1.1,0-2.1-0.5-2.7-1.5l-1.3-2c-0.6-0.9-1.6-1.5-2.7-1.5h-6.3c-1.1,0-2.1,0.5-2.7,1.5
		l-1.3,2c-0.6,0.9-1.6,1.5-2.7,1.5h-3.2c-1.8,0-3.3,1.5-3.3,3.3v18c0,1.8,1.5,3.3,3.3,3.3h26.2c1.8,0,3.3-1.5,3.3-3.3v-18
		C-286.8,249.6-288.3,248.2-290.1,248.2z M-303.1,269.5c-5.4,0-9.8-4.4-9.8-9.8c0-5.4,4.4-9.8,9.8-9.8s9.8,4.4,9.8,9.8
		C-293.3,265-297.7,269.5-303.1,269.5z"/>
</g>
</svg>
