<?xml version="1.0" encoding="utf-8"?>
<!-- Generator: Adobe Illustrator 19.1.0, SVG Export Plug-In . SVG Version: 6.00 Build 0)  -->
<svg version="1.1" id="Layer_1" xmlns="http://www.w3.org/2000/svg" xmlns:xlink="http://www.w3.org/1999/xlink" x="0px" y="0px"
	 viewBox="194 -104 1000 1000" style="enable-background:new 194 -104 1000 1000;" xml:space="preserve">
<style type="text/css">
	.st0{fill:#FFFFFF;}
	.st1{opacity:0.3;}
	.st2{fill:none;stroke:#CFD1CF;stroke-width:3;stroke-miterlimit:10;}
	.st3{fill:none;stroke:#000000;stroke-width:7;stroke-miterlimit:10;}
</style>
<g id="region">
	<polygon id="outline_1_" class="st0" points="360.7,873.7 365.3,853 363,835.7 360.7,813.7 357.3,795 351.3,773 346,760.3 
		346,748.3 348.7,734.3 349.3,721.7 341.3,701.7 344,687.7 336,663.7 336,645 340,621 336,594.3 350.7,585 362,562.3 372.7,554.3 
		366,543 380.7,518.3 380.7,499 411.3,502.3 441.3,496.3 460.7,501 484,506.3 509.3,513 525.3,493 563.3,506.3 587.3,493 610,483 
		644,492.3 652.7,496.3 668.7,492.3 678,495 682,480.3 677.3,461.7 668,429.7 673.3,405.7 664.7,371.7 672.7,354.3 672.7,317.7 
		674.7,290.3 670,256.3 664.7,239 677.3,219 682,196.3 690.7,185.7 696,163.7 706.7,154.3 729.3,113.7 738,117.7 756.1,98.3 
		768.7,72.3 774,49 761.3,43 766,23 752.7,3 745.3,3 736.7,-13 747.3,-20.3 750,-57 748.7,-81.7 985.3,-81.7 985.3,-66.3 985.3,-57 
		985.3,-49.7 994,-47.7 994,-35.7 1012.7,-33.7 1031.3,-39 1052,-21.7 1048.7,-3 1039.3,15.7 1039.3,28.3 1029.3,39 1030,49.7 
		1012.7,73 992.7,67 970,78.3 972,109 966,131 970.7,139 963.3,162.3 962.7,172.3 952,183.7 936.7,196.3 908,189 882.7,207.7 
		852,218.3 842.7,218.3 838.7,243 820.7,255.7 818,283.7 806,293.7 806,344.3 807.3,375.7 798.7,396 806.7,405 798,425.7 798,458.3 
		806.7,471 800,502.3 816,503 842,533 866,532.3 871.3,543 870,559 888,576.3 885.3,604.3 870,629.7 874,639.7 869.3,663 
		874.7,673.7 844,714.3 843.3,733 831.3,768.3 813.3,771 814,787 800,796.3 806,809.7 788.7,823.7 760.7,843 739.3,847.7 722,845.7 
		679.3,862.3 674,873.7 	"/>
	<g id="internal_lines" class="st1">
		<polyline class="st2" points="604.2,596.7 583.7,589.9 563.7,596.7 549.7,624.5 537.7,615.4 516.7,646.9 522.7,675.9 537.7,705.8 
			537.7,737.9 532.7,782.9 573.7,796.9 594.3,796.9 614.3,798.9 		"/>
		<polyline class="st2" points="531.6,624.5 504.7,629.5 488.7,619.9 497.7,580.9 510.1,573.9 510.1,557.9 516.7,541.9 516.1,504.5 
					"/>
		<polyline class="st2" points="488.7,619.9 461.7,626.5 442.7,619.9 429.7,626.5 404.7,614.4 340,621 		"/>
		<polyline class="st2" points="461.7,626.5 476.7,644.5 469.2,656.2 476.7,667.9 444.7,709.9 438.7,743.8 446.7,773.9 438.7,798.9 
			451.7,822.9 457.7,831.9 446.7,873.7 		"/>
		<polyline class="st2" points="678,495 694.5,504.5 692,528.9 711,580.9 699,618.5 691,644.5 703.7,683.6 697,702.7 721,709.9 
			731,726.1 704.5,763.9 700.9,784.9 682.7,792.9 694,813.9 692,836.9 703.7,852.8 		"/>
		<polyline class="st2" points="693.5,636.2 678,640.4 675.7,654.4 681.7,667.4 675.7,687.4 688.2,705.4 678,716.9 684.6,723.9 
			693.5,727.4 704.5,729.4 718.8,743.5 		"/>
		<polyline class="st2" points="708.1,589.9 721.2,614.4 738.2,620.4 756.1,623.4 762.7,632.9 756.1,646.9 788.2,655.9 799.2,673.9 
			816.2,712.9 812.2,730.4 807.2,750.1 792.7,772.9 799.7,776.9 800,796.3 		"/>
		<polyline class="st2" points="857.8,696.1 836.7,689.8 839.2,667.4 844.7,661.4 847.2,642.9 863.2,620.4 869.2,601.4 865.2,576.9 
			844.2,553.9 825.2,541.9 793.7,536.9 770.7,534.4 756.1,539.4 741.2,531.9 722.2,531.9 706.7,510.9 694.5,504.5 		"/>
		<polyline class="st2" points="672.7,337.9 683.2,344.4 697.2,341.1 714.5,351.9 731,349.4 752.2,363.9 772.2,370.9 788.7,367.4 
			807.3,375.7 		"/>
		<polyline class="st2" points="717,139.9 727.7,154.9 725.2,165.9 734.7,175.9 740,159.9 749.7,152.4 761.7,162.4 759.2,139.9 
			764.7,127.9 764.7,108.4 754.2,100.3 		"/>
		<polyline class="st2" points="760.1,148.4 782.7,148.4 791.2,154.9 800.7,160.4 807.3,164.9 813.2,160.9 823.2,164.9 848.2,167.9 
			862.2,172.4 857.2,192.9 870.5,211.9 		"/>
		<polyline class="st2" points="768.7,72.3 790.7,67.4 821.2,69.9 844.2,67.4 862.7,80.4 867.2,91.9 878.7,94.9 885.7,108.4 
			901.2,119.9 914.2,129.9 923.2,148.4 937.7,161.9 952,183.7 		"/>
		<polyline class="st2" points="878.7,94.9 882.7,67.4 889.2,53.9 896.7,53.9 896.7,41.4 923.2,43.9 935.2,52.4 929.2,59.9 
			923.2,67.4 909.2,76.9 906.9,89.9 906.9,103.4 895.7,110.4 895,115.3 		"/>
		<polyline class="st2" points="912.4,74.7 925.2,82.4 932.2,93.9 952,93.9 971.4,100.3 		"/>
		<polyline class="st2" points="932.9,50.8 941.9,46.4 929.2,22.9 955.7,7.4 971.4,19.9 993.7,16.4 1008.2,20.9 1005.7,26.4 
			992.7,25.9 981.2,33.9 1025,56.4 		"/>
		<polyline class="st2" points="610,483 617.8,551.9 604.2,573.9 604.2,596.7 604.2,697.2 601.6,749.9 614.3,798.9 627,831.9 
			642.7,868.9 642.7,873.7 		"/>
		<polyline class="st2" points="776,70.7 776,85.9 786.7,94.4 786.7,106.9 801.2,119.4 795.2,132.9 807.3,148.4 807.3,164.9 		"/>
	</g>
	<polygon id="outline" class="st3" points="360.7,873.7 365.3,853 363,835.7 360.7,813.7 357.3,795 351.3,773 346,760.3 346,748.3 
		348.7,734.3 349.3,721.7 341.3,701.7 344,687.7 336,663.7 336,645 340,621 336,594.3 350.7,585 362,562.3 372.7,554.3 366,543 
		380.7,518.3 380.7,499 411.3,502.3 441.3,496.3 460.7,501 484,506.3 509.3,513 525.3,493 563.3,506.3 587.3,493 610,483 644,492.3 
		652.7,496.3 668.7,492.3 678,495 682,480.3 677.3,461.7 668,429.7 673.3,405.7 664.7,371.7 672.7,354.3 672.7,317.7 674.7,290.3 
		670,256.3 664.7,239 677.3,219 682,196.3 690.7,185.7 696,163.7 706.7,154.3 729.3,113.7 738,117.7 756.1,98.3 768.7,72.3 774,49 
		761.3,43 766,23 752.7,3 745.3,3 736.7,-13 747.3,-20.3 750,-57 748.7,-81.7 985.3,-81.7 985.3,-66.3 985.3,-57 985.3,-49.7 
		994,-47.7 994,-35.7 1012.7,-33.7 1031.3,-39 1052,-21.7 1048.7,-3 1039.3,15.7 1039.3,28.3 1029.3,39 1030,49.7 1012.7,73 
		992.7,67 970,78.3 972,109 966,131 970.7,139 963.3,162.3 962.7,172.3 952,183.7 936.7,196.3 908,189 882.7,207.7 852,218.3 
		842.7,218.3 838.7,243 820.7,255.7 818,283.7 806,293.7 806,344.3 807.3,375.7 798.7,396 806.7,405 798,425.7 798,458.3 806.7,471 
		800,502.3 816,503 842,533 866,532.3 871.3,543 870,559 888,576.3 885.3,604.3 870,629.7 874,639.7 869.3,663 874.7,673.7 
		844,714.3 843.3,733 831.3,768.3 813.3,771 814,787 800,796.3 806,809.7 788.7,823.7 760.7,843 739.3,847.7 722,845.7 679.3,862.3 
		674,873.7 	"/>
</g>
</svg>
