<?xml version="1.0" encoding="utf-8"?>
<!-- Generator: Adobe Illustrator 19.1.0, SVG Export Plug-In . SVG Version: 6.00 Build 0)  -->
<svg version="1.1" id="video_x5F_icon" xmlns="http://www.w3.org/2000/svg" xmlns:xlink="http://www.w3.org/1999/xlink" x="0px"
	 y="0px" viewBox="-340.1 221 74 74" style="enable-background:new -340.1 221 74 74;" xml:space="preserve">
<style type="text/css">
	.st0{fill:#FFFFFF;stroke:#EA8928;stroke-width:4;stroke-miterlimit:10;}
	.st1{fill:#EA8928;}
</style>
<circle id="bg_x5F_circle" class="st0" cx="-303.1" cy="258" r="34.6"/>
<path id="center_x5F_icon" class="st1" d="M-290,244.1h-26.3c-1.7,0-3.1,1.4-3.1,3.1v21.7c0,1.7,1.4,3.1,3.1,3.1h26.3
	c1.7,0,3.1-1.4,3.1-3.1v-21.7C-286.9,245.4-288.3,244.1-290,244.1z M-308.6,247.2h3.1v3.1h-3.1V247.2z M-313.2,268.8h-3.1v-3.1h3.1
	V268.8z M-313.2,250.3h-3.1v-3.1h3.1V250.3z M-305.5,268.8h-3.1v-3.1h3.1V268.8z M-297.7,268.8h-3.1v-3.1h3.1V268.8z M-307,262.6
	v-9.3l9.3,4.6L-307,262.6z M-297.7,250.3h-3.1v-3.1h3.1V250.3z M-290,268.8h-3.1v-3.1h3.1V268.8z M-290,250.3h-3.1v-3.1h3.1V250.3z"
	/>
</svg>
